<svg width="36" height="36" viewBox="0 0 36 36" fill="none" xmlns="http://www.w3.org/2000/svg">
<path d="M30.2071 3.5H31V7.29289L20.6464 17.6464L20.2929 18L20.6464 18.3536L24.1714 21.8786L24.4334 22.1405L24.7603 21.9662C25.0881 21.7913 25.4379 21.6709 25.8119 21.6049C26.2087 21.5349 26.6046 21.5 27 21.5C28.5163 21.5 29.802 22.0341 30.8839 23.1161C31.9659 24.198 32.5 25.4837 32.5 27C32.5 28.5163 31.9659 29.802 30.8839 30.8839C29.802 31.9659 28.5163 32.5 27 32.5C25.4837 32.5 24.198 31.9659 23.1161 30.8839C22.0341 29.802 21.5 28.5163 21.5 27C21.5 26.6046 21.5349 26.2086 21.6049 25.8119C21.6709 25.4379 21.7913 25.0881 21.9662 24.7603L22.1405 24.4334L21.8786 24.1714L18.3536 20.6464L18 20.2929L17.6464 20.6464L14.1214 24.1714L13.8595 24.4334L14.0338 24.7603C14.2087 25.0881 14.3291 25.4379 14.3951 25.8119C14.4651 26.2086 14.5 26.6046 14.5 27C14.5 28.5163 13.9659 29.802 12.8839 30.8839C11.802 31.9659 10.5163 32.5 9 32.5C7.48366 32.5 6.19803 31.9659 5.11605 30.8839C4.03407 29.802 3.5 28.5163 3.5 27C3.5 25.4837 4.03407 24.198 5.11605 23.1161C6.19803 22.0341 7.48366 21.5 9 21.5C9.39542 21.5 9.79135 21.5349 10.1881 21.6049C10.5621 21.6709 10.9119 21.7913 11.2397 21.9662L11.5666 22.1405L11.8286 21.8786L30.2071 3.5ZM5.79289 3.5L15.7929 13.5L13.5 15.7929L5 7.29289L5 3.5H5.79289ZM12.5 27C12.5 26.0413 12.1528 25.2082 11.4723 24.5277C10.7918 23.8472 9.95866 23.5 9 23.5C8.04134 23.5 7.20822 23.8472 6.5277 24.5277C5.84718 25.2082 5.5 26.0413 5.5 27C5.5 27.9587 5.84718 28.7918 6.5277 29.4723C7.20822 30.1528 8.04134 30.5 9 30.5C9.95866 30.5 10.7918 30.1528 11.4723 29.4723C12.1528 28.7918 12.5 27.9587 12.5 27ZM19.25 18C19.25 17.6587 19.116 17.3589 18.8786 17.1214C18.6411 16.884 18.3413 16.75 18 16.75C17.6587 16.75 17.3589 16.884 17.1214 17.1214C16.884 17.3589 16.75 17.6587 16.75 18C16.75 18.3413 16.884 18.6411 17.1214 18.8786C17.3589 19.116 17.6587 19.25 18 19.25C18.3413 19.25 18.6411 19.116 18.8786 18.8786C19.116 18.6411 19.25 18.3413 19.25 18ZM30.5 27C30.5 26.0413 30.1528 25.2082 29.4723 24.5277C28.7918 23.8472 27.9587 23.5 27 23.5C26.0413 23.5 25.2082 23.8472 24.5277 24.5277C23.8472 25.2082 23.5 26.0413 23.5 27C23.5 27.9587 23.8472 28.7918 24.5277 29.4723C25.2082 30.1528 26.0413 30.5 27 30.5C27.9587 30.5 28.7918 30.1528 29.4723 29.4723C30.1528 28.7918 30.5 27.9587 30.5 27Z" fill="black" stroke="white"/>
</svg>
