<svg width="40" height="32" viewBox="0 0 40 32" fill="none" xmlns="http://www.w3.org/2000/svg">
<path d="M18.1018 1.14852L8.60081 9.63508H1V22.3649H8.60081L18.1018 30.8515V1.14852Z" fill="black"/>
<path d="M18.1018 1.14852L8.60081 9.63508H1V22.3649H8.60081L18.1018 30.8515V1.14852Z" fill="black"/>
<path d="M33.4365 1C36.9988 4.97866 39 10.3742 39 16C39 21.6258 36.9988 27.0213 33.4365 31M26.7287 8.48939C28.5099 10.4787 29.5105 13.1765 29.5105 15.9894C29.5105 18.8023 28.5099 21.5001 26.7287 23.4894M18.1018 1.14852L8.60081 9.63508H1V22.3649H8.60081L18.1018 30.8515V1.14852Z" stroke="#F3F3F3" stroke-width="2" stroke-linecap="round" stroke-linejoin="round"/>
</svg>
