<?xml version="1.0" encoding="UTF-8" standalone="no"?>
<svg
   xmlns:dc="http://purl.org/dc/elements/1.1/"
   xmlns:cc="http://creativecommons.org/ns#"
   xmlns:rdf="http://www.w3.org/1999/02/22-rdf-syntax-ns#"
   xmlns:svg="http://www.w3.org/2000/svg"
   xmlns="http://www.w3.org/2000/svg"
   id="e670f97a-bf24-11ef-a7ea-0242ac110006"
   version="1.1"
   width="4.79990551181pt"
   viewBox="0 0 4.79990551181 4.79990551181"
   height="4.79990551181pt">
  <metadata
     id="metadata21">
    <rdf:RDF>
      <cc:Work
         rdf:about="">
        <dc:format>image/svg+xml</dc:format>
        <dc:type
           rdf:resource="http://purl.org/dc/dcmitype/StillImage" />
      </cc:Work>
    </rdf:RDF>
  </metadata>
  <defs
     id="defs19" />
  <g
     id="g2" />
  <g
     id="g10">
    <g
       id="g8">
      <path
         id="path4"
         d="M 2.4002,0.2499 L 2.4,0.2499 C 2.3311,0.2499 2.2749,0.1937 2.2749,0.1249 2.2749,0.056 2.3311,-0.0001 2.4,-0.0001 2.4836,-0.0001 2.5663,0.0044 2.6477,0.0126 2.712,0.0225 2.7583,0.0818 2.7523,0.1475 2.7461,0.2161 2.6848,0.2666 2.6162,0.2604 L 2.616,0.2604 2.6069,0.2595 2.5941,0.2587 2.5791,0.2572 2.5658,0.2564 2.5508,0.2553 2.538,0.2541 2.525,0.2536 2.5099,0.2527 2.4966,0.2519 2.4833,0.2513 2.4705,0.251 2.4572,0.2507 2.4419,0.2504 2.4263,0.2502 2.4133,0.2499 2.4002,0.2499 Z M 3.3311,0.1872 C 3.4065,0.219 3.4797,0.2544 3.5508,0.2935 L 3.5559,0.2964 3.5568,0.2969 C 3.6126,0.3315 3.6325,0.4046 3.6007,0.463 3.5678,0.5234 3.4916,0.5458 3.4312,0.5129 L 3.4312,0.5132 3.4241,0.5092 3.4133,0.5033 3.4006,0.4965 3.389,0.4903 3.3788,0.4849 3.3677,0.4795 3.3547,0.473 3.3433,0.4673 3.3323,0.4622 3.3204,0.4562 3.307,0.45 3.296,0.4449 3.2855,0.4401 3.2722,0.4341 3.2608,0.429 3.2486,0.4239 3.2359,0.4183 C 3.173,0.3908 3.1435,0.3173 3.1707,0.2541 3.1973,0.192 3.2688,0.1629 3.3311,0.1872 Z M 4.1217,0.7281 C 4.1781,0.7859 4.2314,0.8469 4.2816,0.9101 4.3227,0.9636 4.3136,1.0416 4.2606,1.0838 4.207,1.1266 4.128,1.1178 4.0851,1.0643 L 4.0849,1.0646 4.0837,1.0631 4.0758,1.0529 4.0667,1.0419 4.0577,1.0305 4.0506,1.0223 4.0435,1.0138 4.0341,1.003 4.0248,0.992 4.0177,0.9838 4.0095,0.9744 3.9998,0.9636 3.9913,0.954 3.9828,0.9449 3.9729,0.9342 3.9644,0.9248 3.9582,0.9183 3.948,0.9081 3.9426,0.9024 3.9429,0.9024 3.9426,0.9021 C 3.8947,0.8528 3.8958,0.7734 3.9451,0.7255 3.9944,0.6776 4.0738,0.6788 4.1217,0.7281 Z M 4.6376,1.5306 C 4.6674,1.6074 4.6935,1.6862 4.7153,1.7667 4.7283,1.8302 4.6898,1.8945 4.6263,1.9121 4.56,1.9305 4.4908,1.8914 4.4724,1.8251 L 4.4721,1.824 4.469,1.8126 4.4647,1.7984 4.4607,1.7843 4.4579,1.7743 4.4534,1.761 4.4491,1.7471 4.4454,1.7349 4.4415,1.7233 4.4375,1.7111 4.433,1.6981 4.4284,1.6851 4.4242,1.6734 4.4196,1.661 4.4148,1.6479 4.4109,1.6371 4.4052,1.6227 4.4049,1.6218 4.4052,1.6218 C 4.3802,1.5578 4.4117,1.4849 4.4758,1.46 4.5398,1.435 4.6127,1.4665 4.6376,1.5306 Z M 4.7992,2.4637 C 4.7969,2.5496 4.7901,2.6344 4.7791,2.7177 4.7666,2.7821 4.7059,2.8263 4.6402,2.8178 4.5719,2.809 4.5237,2.7461 4.5325,2.6777 L 4.5325,2.6775 4.533,2.6729 4.5347,2.6602 4.5361,2.6474 4.5376,2.6347 4.539,2.6199 4.5404,2.6069 4.5412,2.5941 4.5427,2.5791 4.5435,2.5658 4.5446,2.5508 4.5458,2.538 4.5463,2.525 4.5472,2.5097 4.548,2.4969 4.5486,2.4836 4.5489,2.4705 4.5492,2.4663 C 4.5503,2.3974 4.6076,2.3424 4.6765,2.3435 4.7431,2.3447 4.7966,2.398 4.7992,2.4637 Z M 4.5855,3.3926 C 4.55,3.4706 4.5106,3.5463 4.4673,3.6194 4.431,3.6736 4.3578,3.6909 4.3006,3.6577 4.2411,3.6231 4.2209,3.5463 4.2555,3.4868 L 4.2555,3.4865 4.2586,3.4811 4.2651,3.47 4.2711,3.4595 4.2782,3.4468 4.2853,3.4343 4.2907,3.4244 4.296,3.4148 4.3029,3.4017 4.3091,3.3898 4.315,3.3779 4.3216,3.366 4.3261,3.3566 4.3323,3.3436 4.3383,3.3317 4.3437,3.3204 4.3499,3.3073 4.3547,3.2968 4.3544,3.2977 4.3547,3.2977 C 4.3828,3.2348 4.4568,3.2067 4.5197,3.2348 4.5804,3.2617 4.6087,3.3314 4.5855,3.3926 Z M 4.0222,4.1685 C 3.961,4.2246 3.8969,4.2776 3.83,4.3272 3.7753,4.3638 3.7005,4.3522 3.6605,4.2989 3.6191,4.2439 3.6302,4.1654 3.6852,4.124 L 3.6849,4.1237 3.6852,4.1234 3.6965,4.1149 3.707,4.1073 3.7172,4.0993 3.7286,4.0905 3.7371,4.0837 3.7467,4.0761 3.7566,4.0681 3.7663,4.0596 3.7773,4.0506 3.7869,4.0426 3.798,4.0333 3.8079,4.0248 3.8161,4.0177 3.8255,4.0095 3.8363,3.9998 3.8459,3.9913 3.851,3.9865 3.8513,3.9868 C 3.9017,3.9403 3.9811,3.9437 4.0276,3.9942 4.0735,4.044 4.0707,4.1217 4.0222,4.1685 Z M 3.2087,4.6603 C 3.129,4.6886 3.0477,4.7133 2.9643,4.7331 2.9006,4.7445 2.8373,4.7048 2.8212,4.641 2.8042,4.5744 2.8447,4.5061 2.9113,4.4891 L 2.9113,4.4888 2.9235,4.4857 2.9374,4.4823 2.9516,4.4786 2.9638,4.4755 2.9757,4.4721 2.9881,4.4687 3.0015,4.4647 3.0156,4.4607 3.0247,4.4579 3.0386,4.4534 3.0536,4.4491 3.065,4.4454 3.076,4.4417 3.0876,4.4378 3.1015,4.433 3.1154,4.4281 3.1188,4.4267 3.1188,4.427 3.1191,4.427 C 3.184,4.404 3.2557,4.4378 3.2787,4.5027 3.3011,4.5656 3.2699,4.6354 3.2087,4.6603 Z M 2.2664,4.7964 C 2.1791,4.7915 2.0935,4.7819 2.0091,4.768 1.947,4.753 1.9053,4.6923 1.9149,4.628 1.9251,4.56 1.9892,4.5129 2.0572,4.5231 L 2.0575,4.5231 2.0723,4.5251 2.087,4.5274 2.0995,4.5293 2.112,4.531 2.127,4.533 2.1397,4.5347 2.1525,4.5361 2.1652,4.5376 2.18,4.539 2.193,4.5404 2.2058,4.5412 2.2208,4.5427 2.2341,4.5435 2.2491,4.5446 2.2619,4.5458 2.2721,4.5463 2.2721,4.5466 C 2.3407,4.5506 2.3934,4.6093 2.3897,4.6782 2.3863,4.7442 2.3316,4.7955 2.2664,4.7964 Z M 1.3412,4.5543 C 1.2644,4.5166 1.1901,4.4749 1.1184,4.4293 1.0668,4.391 1.0526,4.3182 1.0875,4.2626 1.1241,4.2042 1.2015,4.1869 1.2599,4.2235 L 1.2601,4.2235 1.2644,4.226 1.2735,4.2317 1.2857,4.2391 1.297,4.2459 1.3078,4.2524 1.3183,4.2586 1.3307,4.2657 1.3423,4.2725 1.3503,4.2768 1.363,4.2836 1.3758,4.2907 1.3866,4.2966 1.3993,4.3034 1.4109,4.3097 1.4211,4.315 1.4322,4.3204 1.4452,4.3269 1.4461,4.3275 C 1.5079,4.3578 1.5337,4.433 1.5034,4.4948 1.4739,4.5549 1.4022,4.5809 1.3412,4.5543 Z M 0.5824,3.9672 C 0.5285,3.9046 0.4775,3.8394 0.4302,3.7714 0.3961,3.7158 0.4103,3.6421 0.4642,3.6041 0.5203,3.5644 0.5985,3.5775 0.6382,3.6336 L 0.6385,3.6333 0.6464,3.6444 0.6538,3.6546 0.6615,3.6651 0.67,3.6767 0.6773,3.6869 0.6839,3.6957 0.6918,3.7059 0.7006,3.7172 0.7082,3.7269 0.7162,3.7368 0.7241,3.747 0.7332,3.758 0.7423,3.7694 0.7493,3.7776 0.7564,3.7861 0.7658,3.7969 0.7723,3.8045 C 0.8171,3.857 0.8111,3.936 0.7587,3.9808 0.7074,4.0248 0.6306,4.02 0.5852,3.9706 L 0.5829,3.9678 0.5824,3.9672 Z M 0.1155,3.1372 C 0.0909,3.0613 0.0702,2.983 0.0531,2.904 0.039,2.8365 0.0818,2.7699 0.1492,2.7557 0.2167,2.7415 0.2833,2.7843 0.2975,2.8518 L 0.2978,2.8518 0.2995,2.8606 0.302,2.8731 0.3049,2.8847 0.3083,2.8991 0.3111,2.9113 0.3142,2.9235 0.3179,2.938 0.3213,2.9519 0.3244,2.9638 0.3278,2.976 0.3309,2.9873 0.3352,3.0015 0.3392,3.0156 0.342,3.0256 0.3465,3.0389 0.3508,3.0528 0.3528,3.059 0.3525,3.059 0.3525,3.0593 C 0.3735,3.1248 0.3375,3.1954 0.272,3.2163 0.2085,3.2367 0.1405,3.2036 0.1169,3.1418 L 0.1155,3.1372 Z M 0.0089,2.1919 C 0.016,2.1094 0.0271,2.0278 0.0424,1.9481 0.056,1.8812 0.1212,1.8378 0.1884,1.8506 0.2561,1.8634 0.3003,1.9291 0.2876,1.9969 L 0.2876,1.9971 0.2856,2.0076 0.2833,2.0201 0.2811,2.032 0.2791,2.0448 0.2771,2.0572 0.2748,2.0723 0.2726,2.087 0.2706,2.0995 0.2689,2.112 0.2669,2.127 0.2652,2.1397 0.2638,2.1525 0.2623,2.1652 0.2609,2.18 0.2595,2.193 0.2587,2.2058 0.2584,2.2083 0.2581,2.2083 C 0.2524,2.2766 0.192,2.3277 0.1234,2.3223 0.0563,2.3169 0.0058,2.2588 0.0089,2.1919 Z M 0.2805,1.2732 C 0.3193,1.2 0.3621,1.1292 0.408,1.0606 0.4472,1.0081 0.5211,0.9951 0.5764,1.0314 0.634,1.0691 0.6498,1.1468 0.6121,1.2043 L 0.6124,1.2046 0.6107,1.2074 0.6034,1.2185 0.5949,1.2318 0.588,1.242 0.5827,1.2502 0.575,1.2627 0.5674,1.2749 0.5608,1.2857 0.5546,1.2961 0.5478,1.3075 0.5413,1.3188 0.5348,1.3299 0.5288,1.3404 0.5217,1.3531 0.5146,1.3656 0.5092,1.3755 0.5039,1.3851 0.5016,1.3897 C 0.4693,1.4503 0.3939,1.4739 0.3329,1.4418 0.272,1.4098 0.2485,1.3341 0.2805,1.2732 Z M 0.8826,0.5407 C 0.9478,0.4874 1.0158,0.4375 1.0864,0.3913 1.1428,0.3582 1.2171,0.3746 1.2536,0.4299 1.2916,0.4871 1.276,0.5648 1.219,0.6031 L 1.2088,0.6099 1.1975,0.6175 1.187,0.6246 1.1774,0.6311 1.1657,0.6394 1.1555,0.6464 1.1456,0.6538 1.1337,0.6623 1.1244,0.6691 1.1147,0.6765 1.1034,0.685 1.0929,0.6926 1.0827,0.7006 1.0714,0.7094 1.0629,0.7162 1.0532,0.7238 1.0458,0.7298 1.0456,0.7295 C 0.9926,0.7731 0.9137,0.7655 0.8701,0.7125 0.8279,0.6612 0.8338,0.5852 0.8826,0.5407 Z M 1.7321,0.0943 C 1.8084,0.0721 1.8866,0.0537 1.9657,0.0393 2.0334,0.0265 2.0992,0.0707 2.112,0.1385 2.1247,0.2062 2.0805,0.2717 2.013,0.2847 L 2.0076,0.2856 1.9935,0.2884 1.9784,0.2913 1.966,0.2938 1.9538,0.2964 1.9393,0.2995 1.9269,0.302 1.9152,0.3049 1.9008,0.3083 1.8886,0.3111 1.8764,0.3142 1.8625,0.3176 1.8483,0.3213 1.8361,0.3244 1.8242,0.3278 1.8118,0.3312 1.8018,0.3343 1.8018,0.3341 C 1.7358,0.3531 1.6661,0.3151 1.6471,0.249 1.6281,0.183 1.6661,0.1132 1.7321,0.0943 Z M 4.2802,0.9084 L 4.2816,0.9101 M 0.0421,1.9498 L 0.0424,1.9481"
         style="fill-rule:evenodd;fill:#e6e6e6;" />
      <path
         id="path6"
         d="M 2.0402,0.7201 L 3.7203,2.3628 2.0402,4.0798 2.0402,0.7201 Z"
         style="stroke-linejoin:round;stroke:#e6e6e6;stroke-linecap:round;stroke-miterlimit:10.433;stroke-width:0.2401;fill:none;" />
    </g>
  </g>
  <g
     id="g12" />
  <g
     id="g14" />
</svg>
