<svg width="37" height="37" viewBox="0 0 37 37" fill="none" xmlns="http://www.w3.org/2000/svg">
<circle cx="18.5" cy="18.5" r="17.5" fill="black"/>
<path d="M11.5 14.5L15 13.5V24" stroke="white" stroke-width="2" stroke-linejoin="round"/>
<path d="M36.0001 18.5C36.0001 22.8972 34.3447 27.1331 31.3634 30.3652C28.3821 33.5974 24.2934 35.5887 19.9105 35.9431C15.5277 36.2975 11.1721 34.989 7.71023 32.2779C4.24835 29.5668 1.93393 25.6518 1.22742 21.3118C0.520918 16.9719 1.47411 12.5249 3.89735 8.85581C6.3206 5.18667 10.0363 2.56424 14.3052 1.51023C18.5742 0.456222 23.0834 1.04789 26.9359 3.16752C30.7884 5.28716 32.1053 7.32991 33.5 11.5M33.5 11.5L35.5 6.5M33.5 11.5L28.5 10" stroke="white" stroke-width="2"/>
<path d="M24 18C24 19.4328 23.7607 20.7606 23.2938 21.6904C22.8428 22.5887 22.2575 23 21.5 23C20.7425 23 20.1572 22.5887 19.7062 21.6904C19.2393 20.7606 19 19.4328 19 18C19 16.5648 19.2404 15.3862 19.6831 14.6029C20.0919 13.8796 20.6562 13.5 21.5 13.5C22.4023 13.5 22.9582 13.8887 23.3487 14.5948C23.7796 15.3741 24 16.5507 24 18Z" fill="black" stroke="white" stroke-width="2"/>
</svg>
