<svg width="37" height="37" viewBox="0 0 37 37" fill="none" xmlns="http://www.w3.org/2000/svg">
<circle cx="18.5" cy="18.5" r="17.5" fill="black"/>
<path d="M0.999947 18.5C0.999947 22.8972 2.65526 27.1331 5.63656 30.3652C8.61786 33.5974 12.7066 35.5887 17.0895 35.9431C21.4723 36.2975 25.8279 34.989 29.2898 32.2779C32.7517 29.5668 35.0661 25.6518 35.7726 21.3118C36.4791 16.9719 35.5259 12.5249 33.1026 8.85581C30.6794 5.18667 26.9637 2.56424 22.6948 1.51023C18.4258 0.456222 13.9166 1.04789 10.0641 3.16752C6.21156 5.28716 4.89465 7.32991 3.5 11.5M3.5 11.5L1.5 6.5M3.5 11.5L8.5 10" stroke="white" stroke-width="2"/>
<path d="M11.5 14.5L15 13.5V24" stroke="white" stroke-width="2" stroke-linejoin="round"/>
<path d="M24 18C24 19.4328 23.7607 20.7606 23.2938 21.6904C22.8428 22.5887 22.2575 23 21.5 23C20.7425 23 20.1572 22.5887 19.7062 21.6904C19.2393 20.7606 19 19.4328 19 18C19 16.5648 19.2404 15.3862 19.6831 14.6029C20.0919 13.8796 20.6562 13.5 21.5 13.5C22.4023 13.5 22.9582 13.8887 23.3487 14.5948C23.7796 15.3741 24 16.5507 24 18Z" fill="black" stroke="white" stroke-width="2"/>
</svg>
