<svg width="32" height="32" viewBox="0 0 32 32" fill="none" xmlns="http://www.w3.org/2000/svg">
<rect width="32" height="32" rx="8" fill="#D9D9D9"/>
<path d="M7.44444 27H24.5556C25.9056 27 27 25.9056 27 24.5556V7.44444C27 6.09441 25.9056 5 24.5556 5H7.44444C6.09441 5 5 6.09441 5 7.44444V24.5556C5 25.9056 6.09441 27 7.44444 27ZM7.44444 27L20.8889 13.5556L27 19.6667M13.5556 11.7222C13.5556 12.7347 12.7347 13.5556 11.7222 13.5556C10.7097 13.5556 9.88889 12.7347 9.88889 11.7222C9.88889 10.7097 10.7097 9.88889 11.7222 9.88889C12.7347 9.88889 13.5556 10.7097 13.5556 11.7222Z" stroke="#1E1E1E" stroke-width="2" stroke-linecap="round" stroke-linejoin="round"/>
</svg>
