<svg width="32" height="32" viewBox="0 0 32 32" fill="none" xmlns="http://www.w3.org/2000/svg">
<rect width="32" height="32" rx="8" fill="#D9D9D9"/>
<path d="M13.4193 24.7742C12.2838 24.7742 11.3118 24.3699 10.5032 23.5613C9.69458 22.7527 9.29028 21.7806 9.29028 20.6452C9.29028 19.5097 9.69458 18.5376 10.5032 17.729C11.3118 16.9204 12.2838 16.5161 13.4193 16.5161C13.815 16.5161 14.1763 16.5677 14.5032 16.671C14.8473 16.757 15.1742 16.8946 15.4838 17.0839V6.19354H21.6774V10.3226H17.5483V20.6452C17.5483 21.7806 17.144 22.7527 16.3354 23.5613C15.5268 24.3699 14.5548 24.7742 13.4193 24.7742Z" fill="#1D1B20"/>
</svg>
