<svg width="32" height="32" viewBox="0 0 32 32" fill="none" xmlns="http://www.w3.org/2000/svg">
<rect width="32" height="32" rx="8" fill="#D9D9D9"/>
<path d="M8 23.5C7.45 23.5 6.97917 23.3103 6.5875 22.9309C6.19583 22.5514 6 22.0953 6 21.5625V9.9375C6 9.40469 6.19583 8.94857 6.5875 8.56914C6.97917 8.18971 7.45 8 8 8H14L16 9.9375H24C24.55 9.9375 25.0208 10.1272 25.4125 10.5066C25.8042 10.8861 26 11.3422 26 11.875V21.5625C26 22.0953 25.8042 22.5514 25.4125 22.9309C25.0208 23.3103 24.55 23.5 24 23.5H8ZM8 21.5625H24V11.875H15.175L13.175 9.9375H8V21.5625Z" fill="#1D1B20"/>
</svg>
