<svg width="32" height="32" viewBox="0 0 32 32" fill="none" xmlns="http://www.w3.org/2000/svg">
<rect width="32" height="32" rx="8" fill="#D9D9D9"/>
<path d="M8.25812 23.7419C7.69038 23.7419 7.20006 23.5441 6.78715 23.1484C6.39145 22.7355 6.1936 22.2452 6.1936 21.6774V9.29032C6.1936 8.72257 6.39145 8.24085 6.78715 7.84515C7.20006 7.43225 7.69038 7.2258 8.25812 7.2258H20.6452C21.213 7.2258 21.6947 7.43225 22.0904 7.84515C22.5033 8.24085 22.7097 8.72257 22.7097 9.29032V13.9355L26.8388 9.80645V21.1613L22.7097 17.0323V21.6774C22.7097 22.2452 22.5033 22.7355 22.0904 23.1484C21.6947 23.5441 21.213 23.7419 20.6452 23.7419H8.25812ZM8.25812 21.6774H20.6452V9.29032H8.25812V21.6774ZM8.25812 21.6774V9.29032V21.6774Z" fill="#1D1B20"/>
</svg>
