<?xml version="1.0" encoding="UTF-8" standalone="no"?>
<svg
   version="1.1"
   width="6.2399001"
   height="9.0085001"
   id="svg22"
   viewBox="0 0 6.2399001 9.0085001"
   sodipodi:docname="ef5f964a1695b98de5e296e35e9e6332.cdr"
   xmlns:inkscape="http://www.inkscape.org/namespaces/inkscape"
   xmlns:sodipodi="http://sodipodi.sourceforge.net/DTD/sodipodi-0.dtd"
   xmlns="http://www.w3.org/2000/svg"
   xmlns:svg="http://www.w3.org/2000/svg">
  <defs
     id="defs26" />
  <sodipodi:namedview
     id="namedview24"
     pagecolor="#ffffff"
     bordercolor="#666666"
     borderopacity="1.0"
     inkscape:pageshadow="2"
     inkscape:pageopacity="0.0"
     inkscape:pagecheckerboard="0" />
  <g
     id="Layer1000"
     transform="translate(-1.6801,-0.2356)">
    <g
       id="Layer1001">
      <path
         d="m 2.5197,0.3555 h 4.5607 c 0.396,0 0.7197,0.3237 0.7197,0.7197 v 4.5606 c 0,0.396 -0.3237,0.7198 -0.7197,0.7198 H 2.5197 C 2.1237,6.3556 1.8,6.0318 1.8,5.6358 V 1.0752 c 0,-0.396 0.3237,-0.7197 0.7197,-0.7197 z"
         style="fill:none;stroke:#e6e6e6;stroke-width:0.2398;stroke-linecap:butt;stroke-linejoin:miter;stroke-dasharray:none"
         id="path2" />
      <path
         d="M 2.9999,0.3555 H 6.6002 V 6.3556 H 2.9999 Z"
         style="fill:none;stroke:#e6e6e6;stroke-width:0.2398;stroke-linecap:butt;stroke-linejoin:miter;stroke-dasharray:none"
         id="path4" />
      <path
         d="M 1.8,1.796 H 2.9999"
         style="fill:none;stroke:#e6e6e6;stroke-width:0.2398;stroke-linecap:butt;stroke-linejoin:miter;stroke-dasharray:none"
         id="path6" />
      <path
         d="M 1.8,3.3557 H 2.9999"
         style="fill:none;stroke:#e6e6e6;stroke-width:0.2398;stroke-linecap:butt;stroke-linejoin:miter;stroke-dasharray:none"
         id="path8" />
      <path
         d="M 1.8,4.9082 H 2.9999"
         style="fill:none;stroke:#e6e6e6;stroke-width:0.2398;stroke-linecap:butt;stroke-linejoin:miter;stroke-dasharray:none"
         id="path10" />
      <path
         d="M 6.6002,1.796 H 7.8001"
         style="fill:none;stroke:#e6e6e6;stroke-width:0.2398;stroke-linecap:butt;stroke-linejoin:miter;stroke-dasharray:none"
         id="path12" />
      <path
         d="M 6.6002,3.3557 H 7.8001"
         style="fill:none;stroke:#e6e6e6;stroke-width:0.2398;stroke-linecap:butt;stroke-linejoin:miter;stroke-dasharray:none"
         id="path14" />
      <path
         d="M 6.6002,4.9082 H 7.8001"
         style="fill:none;stroke:#e6e6e6;stroke-width:0.2398;stroke-linecap:butt;stroke-linejoin:miter;stroke-dasharray:none"
         id="path16" />
    </g>
    <path
       d="M 3.7213,7.8205 3.2026,9.2208 H 3.0217 L 2.514,7.8205 H 2.6969 L 3.0844,8.9308 C 3.0969,8.9666 3.1062,9.0079 3.1127,9.0547 H 3.1164 C 3.1218,9.0159 3.1326,8.9739 3.1487,8.9289 L 3.5444,7.8205 Z m 0.152,0.1463 C 3.8449,7.9668 3.8203,7.9571 3.8001,7.9373 3.78,7.918 3.7698,7.8934 3.7698,7.8633 c 0,-0.03 0.0102,-0.055 0.0303,-0.0745 0.0202,-0.0202 0.0448,-0.0301 0.0732,-0.0301 0.0292,0 0.0544,0.0099 0.0748,0.0301 0.0204,0.0195 0.0309,0.0445 0.0309,0.0745 0,0.0286 -0.0105,0.053 -0.0309,0.0731 C 3.9277,7.9569 3.9025,7.9668 3.8733,7.9668 Z m 0.0782,1.254 H 3.7913 v -1 h 0.1602 z m 1.0681,0 H 4.8594 V 9.0507 H 4.8557 C 4.7812,9.1797 4.6667,9.2441 4.5116,9.2441 4.3863,9.2441 4.2857,9.1996 4.2106,9.1097 4.1352,9.0204 4.0975,8.8985 4.0975,8.744 c 0,-0.1652 0.0416,-0.2976 0.125,-0.3971 0.0833,-0.0998 0.1944,-0.1494 0.3331,-0.1494 0.1374,0 0.2375,0.0539 0.3001,0.1619 H 4.8594 V 7.7403 H 5.0196 Z M 4.8594,8.7687 V 8.621 C 4.8594,8.5405 4.8328,8.4722 4.7792,8.4161 4.7259,8.3602 4.6582,8.3322 4.5763,8.3322 4.4787,8.3322 4.4016,8.3679 4.3455,8.4393 4.2897,8.511 4.2616,8.6102 4.2616,8.7364 c 0,0.1153 0.0269,0.2061 0.0808,0.273 0.0536,0.0669 0.1259,0.1 0.2163,0.1 0.0893,0 0.1616,-0.0323 0.2174,-0.0966 C 4.8317,8.9484 4.8594,8.8668 4.8594,8.7687 Z M 6.0378,8.7608 H 5.3317 C 5.3345,8.8722 5.3643,8.958 5.4218,9.0187 5.4791,9.0791 5.5576,9.1094 5.658,9.1094 5.7708,9.1094 5.874,9.0726 5.9686,8.998 V 9.1485 C 5.8808,9.2126 5.7645,9.2441 5.62,9.2441 5.4788,9.2441 5.3677,9.1987 5.2872,9.1083 5.2061,9.017 5.1656,8.8894 5.1656,8.7248 5.1656,8.5691 5.2101,8.4424 5.298,8.3443 5.3864,8.2466 5.4961,8.1975 5.6268,8.1975 c 0.1309,0 0.2318,0.0422 0.3036,0.127 0.0717,0.0842 0.1074,0.2018 0.1074,0.3524 z M 5.8737,8.625 C 5.8731,8.5329 5.8507,8.4609 5.8071,8.409 5.7631,8.3577 5.7022,8.3322 5.6237,8.3322 5.5485,8.3322 5.4842,8.3591 5.4315,8.4132 5.3787,8.4671 5.3461,8.5377 5.3337,8.625 Z M 6.5883,9.2441 C 6.4406,9.2441 6.3227,9.1976 6.2342,9.104 6.1464,9.0108 6.1019,8.8869 6.1019,8.7324 c 0,-0.1681 0.0462,-0.299 0.1377,-0.3937 0.0921,-0.0944 0.216,-0.1412 0.3725,-0.1412 0.1488,0 0.2653,0.0456 0.3489,0.1375 0.0837,0.0918 0.1253,0.2191 0.1253,0.3818 0,0.1596 -0.045,0.2875 -0.1349,0.3833 C 6.861,9.1962 6.7399,9.2441 6.5883,9.2441 Z M 6.5999,8.3322 C 6.4973,8.3322 6.4159,8.367 6.3561,8.437 6.296,8.5071 6.266,8.6034 6.266,8.7267 c 0,0.1185 0.0303,0.2118 0.091,0.2801 0.0606,0.0683 0.1417,0.1026 0.2429,0.1026 0.1038,0 0.1834,-0.0337 0.2392,-0.1006 C 6.8947,8.9419 6.9225,8.8464 6.9225,8.7228 6.9225,8.5978 6.8947,8.5014 6.8391,8.4336 6.7833,8.3659 6.7037,8.3322 6.5999,8.3322 Z"
       style="fill:#e6e6e6;fill-rule:evenodd"
       id="path19" />
  </g>
</svg>
