<?xml version="1.0" encoding="UTF-8"?>
<svg xmlns="http://www.w3.org/2000/svg" id="Layer_1" data-name="Layer 1" viewBox="0 0 24 24">
  <path d="m17,16.5v7c0,.276-.224.5-.5.5s-.5-.224-.5-.5v-5.793l-1.146,1.146c-.195.195-.512.195-.707,0s-.195-.512,0-.707l2-2c.143-.143.357-.186.545-.108.187.077.309.26.309.462Zm6.5-14c-.276,0-.5.224-.5.5v4.216C21.109,2.876,16.773,0,12,0,5.383,0,0,5.383,0,12s5.357,11.974,11.952,12h.058c.563-.002,1.127-.044,1.677-.124.273-.04.462-.293.423-.566-.039-.273-.291-.472-.566-.423-.512.074-1.038.112-1.562.113-6.057-.01-10.981-4.941-10.981-11S5.935,1,12,1c4.515,0,8.605,2.807,10.244,7h-4.244c-.276,0-.5.224-.5.5s.224.5.5.5h4.5c.827,0,1.5-.673,1.5-1.5V3c0-.276-.224-.5-.5-.5Zm.5,16v3c0,1.378-1.122,2.5-2.5,2.5s-2.5-1.122-2.5-2.5v-3c0-1.378,1.122-2.5,2.5-2.5s2.5,1.122,2.5,2.5Zm-1,0c0-.827-.673-1.5-1.5-1.5s-1.5.673-1.5,1.5v3c0,.827.673,1.5,1.5,1.5s1.5-.673,1.5-1.5v-3ZM12,5.5v6.5h-5.5c-.276,0-.5.224-.5.5s.224.5.5.5h6c.276,0,.5-.224.5-.5v-7c0-.276-.224-.5-.5-.5s-.5.224-.5.5Z"/>
</svg>
